#!OML:ASF F:\twosubjects\two\Thursday\Session 1\justin.ASF
:FULLY-SPECIFIED
:DEGREES
356
root 5.8803 16.9462 -6.07479 5.48365 7.32804 -3.56807
lowerback 18.5547 0.828157 -2.6293
upperback 9.79963 0.749914 1.7893
thorax 0.0851201 0.245763 3.24572
lowerneck 3.67761 -18.6388 -21.9645
upperneck -15.3036 -24.6433 29.8767
head 1.8728 -13.0035 11.1901
rclavicle 2.08724e-015 -5.1684e-015
rhumerus -13.8849 -42.4864 -14.6177
rradius 34.5938
rwrist 2.31695
rhand -41.179 25.4403
rfingers 7.12502
rthumb -14.1041 -4.06101
lclavicle 2.08724e-015 -5.1684e-015
lhumerus -36.9125 -0.412328 28.3963
lradius 32.9194
lwrist -24.8079
lhand -23.674 51.2093
lfingers 7.12502
lthumb 2.79222 81.1708
rfemur -25.4298 -8.47405 16.1856
rtibia 49.1888
rfoot -28.2471 -5.15839
rtoes -16.3652
lfemur -35.4824 1.19441 0.42056
ltibia 25.1853
lfoot -6.51721 -6.21262
ltoes -42.6042
357
root 5.82341 16.9635 -6.14888 5.56071 7.5635 -3.46821
lowerback 18.5195 0.811223 -2.75377
upperback 9.75198 0.707565 1.64268
thorax 0.0557317 0.225788 3.16829
lowerneck 3.36948 -18.5951 -21.8312
upperneck -14.9757 -24.5677 30.1081
head 2.02338 -12.9558 11.207
rclavicle -4.17448e-015 -6.95746e-015
rhumerus -13.6589 -42.4871 -15.2664
rradius 34.7036
rwrist 2.12624
rhand -41.4096 25.2227
rfingers 7.12502
rthumb -14.3263 -4.26297
lclavicle -4.17448e-015 -6.95746e-015
lhumerus -36.4975 -0.216219 28.3678
lradius 32.7044
lwrist -25.4952
lhand -23.7273 51.4432
lfingers 7.12502
lthumb 2.74076 81.4053
rfemur -25.8879 -8.35061 16.33
rtibia 49.3462
rfoot -27.9876 -5.43069
rtoes -17.1228
lfemur -35.5496 1.46252 0.28424
ltibia 26.6211
lfoot -7.57486 -5.44222
ltoes -41.4931
358
root 5.76954 16.979 -6.2194 5.47649 7.713 -3.47509
lowerback 18.6442 0.85893 -2.7612
upperback 9.7246 0.763521 1.51578
thorax -0.0407471 0.259215 3.02697
lowerneck 3.39469 -18.8752 -21.406
upperneck -14.9734 -24.9355 30.0163
head 2.03281 -13.1537 11.0452
rclavicle 2.64384e-014 8.74653e-015
rhumerus -13.7361 -42.1927 -15.6559
rradius 34.8049
rwrist 1.63466
rhand -41.8789 25.524
rfingers 7.12502
rthumb -14.7785 -3.92914
lclavicle 2.64384e-014 8.74653e-015
lhumerus -35.9733 -0.401634 28.4487
lradius 32.4302
lwrist -26.1218
lhand -23.3968 51.4337
lfingers 7.12502
lthumb 3.05993 81.3915
rfemur -26.0252 -8.0088 16.5508
rtibia 49.388
rfoot -27.7885 -5.91221
rtoes -18.6405
lfemur -35.5734 1.73836 0.235219
ltibia 28.4059
lfoot -8.20213 -4.8696
ltoes -40.1323
359
root 5.72392 16.9847 -6.28603 5.38904 7.94425 -3.49525
lowerback 18.8316 0.831006 -2.78171
upperback 9.60552 0.718884 1.47047
thorax -0.261172 0.243051 2.99751
lowerneck 3.39222 -19.1239 -20.5093
upperneck -15.0246 -25.2126 29.339
head 1.83726 -13.2959 10.6866
rclavicle 2.06736e-014 1.19271e-015
rhumerus -13.6511 -41.675 -16.1335
rradius 34.9612
rwrist 1.40679
rhand -42.035 25.4845
rfingers 7.12502
rthumb -14.9288 -3.95746
lclavicle 2.06736e-014 1.19271e-015
lhumerus -35.8446 -0.672343 28.6505
lradius 32.3127
lwrist -26.8604
lhand -23.5414 51.3254
lfingers 7.12502
lthumb 2.92025 81.2852
rfemur -26.0271 -7.62492 16.714
rtibia 49.2849
rfoot -27.6553 -6.35163
rtoes -18.5387
lfemur -35.642 2.05631 0.105294
ltibia 30.4638
lfoot -8.82442 -4.41937
ltoes -38.6459
360
root 5.68309 16.9895 -6.34933 5.42734 8.30789 -3.43411
lowerback 18.8182 0.613083 -2.92616
upperback 9.48829 0.413482 1.43511
thorax -0.35766 0.0906971 3.09891
lowerneck 4.0846 -18.8341 -21.6019
upperneck -15.166 -24.984 30.5528
head 2.00592 -13.2513 11.3052
rclavicle 3.99557e-014 1.09332e-014
rhumerus -12.9093 -41.221 -17.1348
rradius 35.051
rwrist 1.47754
rhand -41.9955 25.0409
rfingers 7.12502
rthumb -14.8909 -4.40389
lclavicle 3.99557e-014 1.09332e-014
lhumerus -36.2053 -0.309707 28.7214
lradius 32.2726
lwrist -28.0538
lhand -23.6548 51.4438
lfingers 7.12502
lthumb 2.81071 81.405
rfemur -26.1397 -7.36723 16.7987
rtibia 49.0757
rfoot -27.3819 -6.82022
rtoes -17.7144
lfemur -35.7659 2.51059 -0.211669
ltibia 32.6717
lfoot -9.25409 -4.13878
ltoes -36.3498
361
root 5.63869 17.0093 -6.41075 5.41242 8.67674 -3.51734
lowerback 18.7632 0.466322 -2.93985
upperback 9.50228 0.225802 1.48288
thorax -0.300023 -0.00490321 3.19235
lowerneck 4.01684 -18.7352 -21.9518
upperneck -15.1782 -24.8619 31.1153
head 2.13771 -13.2028 11.5346
rclavicle -2.98177e-015 1.78906e-014
rhumerus -12.4342 -41.1451 -17.7824
rradius 34.9657
rwrist 1.8637
rhand -42.0161 24.8932
rfingers 7.12502
rthumb -14.9106 -4.55011
lclavicle -2.98177e-015 1.78906e-014
lhumerus -36.1265 0.49638 28.8334
lradius 31.9391
lwrist -29.7378
lhand -23.1433 51.3251
lfingers 7.12502
lthumb 3.30471 81.2792
rfemur -26.2152 -6.91047 17.077
rtibia 48.7963
rfoot -27.007 -7.61337
rtoes -16.9638
lfemur -35.7848 2.97062 -0.397308
ltibia 34.9483
lfoot -9.62114 -3.74452
ltoes -35.5678
362
root 5.59305 17.0342 -6.47366 5.4195 9.06494 -3.82688
lowerback 18.7191 0.34025 -2.85394
upperback 9.47722 0.0824749 1.63549
thorax -0.293393 -0.0764617 3.33206
lowerneck 3.71683 -18.8294 -21.5637
upperneck -15.1309 -24.9192 30.9129
head 2.1232 -13.2149 11.3762
rclavicle -8.94531e-015 -1.31198e-014
rhumerus -12.1125 -40.783 -18.2401
rradius 34.8
rwrist 2.1587
rhand -42.1068 24.9191
rfingers 7.12502
rthumb -14.998 -4.51777
lclavicle -8.94531e-015 -1.31198e-014
lhumerus -36.1983 0.71812 29.1594
lradius 31.7571
lwrist -30.8822
lhand -22.3247 51.0479
lfingers 7.12502
lthumb 4.09526 80.9882
rfemur -26.3373 -6.28141 17.6117
rtibia 48.5282
rfoot -26.84 -8.52555
rtoes -15.8657
lfemur -35.8793 3.57128 -0.431431
ltibia 37.2665
lfoot -10.3281 -3.29372
ltoes -37.167
363
root 5.55695 17.0535 -6.53242 5.50088 9.45416 -4.0173
lowerback 18.5944 0.131513 -2.83825
upperback 9.41144 -0.180212 1.70463
thorax -0.279117 -0.207441 3.44413
lowerneck 3.65059 -18.913 -21.255
upperneck -15.1001 -25.0089 30.7566
head 2.09294 -13.2595 11.2629
rclavicle -2.36554e-014 3.10104e-014
rhumerus -11.6972 -40.3721 -18.89
rradius 34.737
rwrist 2.37748
rhand -41.8286 25.378
rfingers 7.12502
rthumb -14.73 -4.07869
lclavicle -2.36554e-014 3.10104e-014
lhumerus -36.6537 0.775133 29.4584
lradius 31.7207
lwrist -32.1664
lhand -21.2358 51.2515
lfingers 7.12502
lthumb 5.14668 81.169
rfemur -26.5495 -5.77883 17.9968
rtibia 48.3009
rfoot -26.6825 -9.45874
rtoes -15.5521
lfemur -36.0059 4.22205 -0.612427
ltibia 39.5796
lfoot -10.5079 -3.03495
ltoes -35.908
364
root 5.5309 17.0672 -6.58698 5.56911 9.66476 -3.93122
lowerback 18.6103 0.0852665 -2.89112
upperback 9.33885 -0.249623 1.65227
thorax -0.359615 -0.239472 3.43172
lowerneck 3.73466 -18.9959 -21.2239
upperneck -15.3338 -25.1002 31.0178
head 2.08063 -13.3335 11.3352
rclavicle 2.74323e-014 -1.78906e-014
rhumerus -11.8882 -40.3247 -19.1031
rradius 34.8242
rwrist 2.65111
rhand -41.2738 26.0321
rfingers 7.12502
rthumb -14.1954 -3.46287
lclavicle 2.74323e-014 -1.78906e-014
lhumerus -36.6626 0.924207 29.7993
lradius 31.44
lwrist -33.9586
lhand -20.2973 51.331
lfingers 7.12502
lthumb 6.0528 81.2245
rfemur -26.6899 -5.14325 17.9768
rtibia 48.0867
rfoot -26.4541 -10.1538
rtoes -15.1722
lfemur -35.878 4.80191 -1.01428
ltibia 41.7729
lfoot -10.0661 -2.79566
ltoes -31.2281
365
root 5.50801 17.0838 -6.64309 5.78742 9.75031 -3.59119
lowerback 18.6076 0.136373 -3.30567
upperback 9.1966 -0.250778 1.62368
thorax -0.505142 -0.24759 3.6383
lowerneck 3.34667 -19.2048 -21.1423
upperneck -15.0766 -25.3638 30.9325
head 2.24976 -13.4252 11.176
rclavicle 2.78299e-015 -7.95139e-015
rhumerus -12.1848 -39.9393 -19.1641
rradius 35.0841
rwrist 2.63426
rhand -41.1543 25.5209
rfingers 7.12502
rthumb -14.0803 -3.98205
lclavicle 2.78299e-015 -7.95139e-015
lhumerus -36.7184 0.820077 30.3451
lradius 31.1168
lwrist -35.4491
lhand -19.7643 51.3242
lfingers 7.12502
lthumb 6.56739 81.2023
rfemur -26.9299 -4.5472 17.6621
rtibia 47.9093
rfoot -26.362 -10.6438
rtoes -14.5207
lfemur -35.6974 5.46742 -1.72485
ltibia 43.8656
lfoot -10.0574 -2.54244
ltoes -28.3598
